<svg height="700pt" preserveAspectRatio="xMidYMid meet" viewBox="0 0 700 700" width="700pt" xmlns="http://www.w3.org/2000/svg"><path d="m1470 3585v-2531l1213 2c666 1 1241 4 1277 8 36 3 97 8 135 11 39 4 77 8 85 10s38 6 65 10c238 29 505 105 690 198 189 93 361 236 469 386 152 213 231 497 230 831 0 114-10 231-24 295-5 22-12 56-15 75s-20 76-37 125c-118 346-373 607-708 725-36 13-69 27-74 31-4 4 26 23 67 42 321 148 518 414 571 772 13 90 14 352 2 430-67 410-230 662-542 840-150 86-436 180-634 209-19 3-44 7-55 10-11 2-47 7-80 10-33 4-73 9-90 11-16 2-59 6-95 10-36 3-96 8-135 11-38 4-575 7-1192 8l-1123 2zm2200 1630c19-4 40-8 45-9 261-58 405-237 407-509 2-168-41-288-136-382-85-83-214-138-359-151-84-8-836-11-846-4-4 3-7 245-7 538l1 532 430-4c236-2 446-7 465-11zm78-1959c57-7 196-46 252-70s155-97 195-146c96-114 140-274 131-470s-56-319-161-425c-70-71-140-113-245-148-139-47-232-54-707-53l-438 1-1 645c-1 355 1 653 3 663 5 18 25 18 461 14 252-2 481-7 510-11z" transform="matrix(.1 0 0 -.1 0 700)"/></svg>